<svg width="45" height="45" viewBox="0 0 45 45" fill="none" xmlns="http://www.w3.org/2000/svg">
<path d="M44.6811 42.093L28.6811 19.0497L44.469 3.13396C44.8261 2.76511 45.0101 2.28215 44.9812 1.78978C44.9523 1.29742 44.7128 0.835338 44.3146 0.50372C43.9164 0.172102 43.3916 -0.00232316 42.8541 0.0182599C42.3165 0.038843 41.8094 0.252775 41.4428 0.613676L26.4038 15.7729L16.0549 0.868984C15.8703 0.602795 15.6155 0.383596 15.3139 0.231693C15.0123 0.0797899 14.6738 9.77437e-05 14.3296 2.21661e-07H2.06122C1.6946 -0.000163171 1.33468 0.0900073 1.01914 0.261069C0.703604 0.432132 0.444056 0.677793 0.267677 0.972329C0.091298 1.26687 0.00457653 1.59944 0.0165927 1.93524C0.0286089 2.27103 0.138921 2.59768 0.335978 2.881L16.336 25.9219L0.54812 41.8494C0.363753 42.0309 0.220527 42.2441 0.126745 42.4767C0.0329624 42.7093 -0.00951281 42.9567 0.0017824 43.2044C0.0130776 43.4522 0.0779187 43.6954 0.192546 43.92C0.307173 44.1446 0.469307 44.3461 0.669552 44.5129C0.869796 44.6797 1.10417 44.8084 1.35908 44.8915C1.614 44.9747 1.88439 45.0106 2.15458 44.9973C2.42477 44.984 2.68939 44.9216 2.9331 44.8139C3.17681 44.7062 3.39476 44.5552 3.57432 44.3697L18.6133 29.2105L28.9623 44.1144C29.1483 44.3784 29.4038 44.5953 29.7053 44.7451C30.0068 44.8949 30.3445 44.9728 30.6875 44.9717H42.9559C43.3221 44.9716 43.6816 44.8813 43.9967 44.7104C44.3119 44.5394 44.5712 44.2941 44.7475 43.9999C44.9238 43.7057 45.0106 43.3736 44.999 43.0381C44.9873 42.7027 44.8775 42.3763 44.6811 42.093ZM31.8095 41.224L5.78519 3.74764H13.1974L39.2319 41.224H31.8095Z" fill="#00406E"/>
</svg>
